<svg width="78" height="86" viewBox="0 0 78 86" fill="none" xmlns="http://www.w3.org/2000/svg">
<path d="M48.683 73.1C52.4306 73.1 54.4105 77.5032 51.9107 80.2724C50.2854 82.0743 48.2955 83.5158 46.0708 84.5028C43.8462 85.4897 41.4368 85.9999 39.0001 86C36.5633 85.9999 34.154 85.4897 31.9293 84.5028C29.7047 83.5158 27.7148 82.0743 26.0894 80.2724C23.6979 77.6236 25.4049 73.4827 28.8362 73.1301L29.3128 73.1043L48.683 73.1ZM39.0001 0C44.8835 0 49.8571 3.8829 51.4558 9.2063L51.6551 9.9416L51.6898 10.1265C56.4664 12.7999 60.5368 16.5587 63.5672 21.0949C66.5976 25.6311 68.5017 30.8156 69.1234 36.2232L69.2447 37.4573L69.3271 38.7V51.3033L69.418 51.8881C70.0112 55.0564 71.7778 57.8897 74.37 59.8302L75.0935 60.3333L75.7954 60.759C79.5213 62.8531 78.2215 68.3528 74.162 68.7742L73.6595 68.8H4.34066C-0.113074 68.8 -1.66842 62.9348 2.20477 60.759C3.85556 59.8318 5.28186 58.5572 6.38357 57.0247C7.48528 55.4923 8.23568 53.739 8.58211 51.8881L8.67309 51.2732L8.67742 38.5022C8.94158 32.8859 10.5887 27.4194 13.4746 22.5813C16.3606 17.7432 20.3974 13.6809 25.2316 10.75L26.3061 10.1222L26.3494 9.9373C26.9605 7.36516 28.3528 5.04138 30.338 3.28024C32.3232 1.51909 34.8055 0.40558 37.4491 0.0902996L38.2376 0.0171998L39.0001 0Z" fill="white"/>
</svg>
