<svg width="86" height="86" viewBox="0 0 86 86" fill="none" xmlns="http://www.w3.org/2000/svg">
<path fill-rule="evenodd" clip-rule="evenodd" d="M41.2477 0.400753C41.7942 0.13699 42.3932 0 43 0C43.6068 0 44.2058 0.13699 44.7523 0.400753L83.721 19.2138C84.643 19.6656 85.3578 20.4523 85.7197 21.4132C86.0815 22.3742 86.063 23.4369 85.668 24.3847C85.273 25.3325 84.5312 26.0938 83.5941 26.5133C82.6569 26.9329 81.595 26.979 80.625 26.6422V77.9373H81.9688C83.0379 77.9373 84.0633 78.362 84.8193 79.118C85.5753 79.8741 86 80.8995 86 81.9686C86 83.0378 85.5753 84.0632 84.8193 84.8192C84.0633 85.5753 83.0379 86 81.9688 86H4.03125C2.9621 86 1.93673 85.5753 1.18073 84.8192C0.424719 84.0632 0 83.0378 0 81.9686C0 80.8995 0.424719 79.8741 1.18073 79.118C1.93673 78.362 2.9621 77.9373 4.03125 77.9373H5.375V26.6422C4.40501 26.979 3.34309 26.9329 2.40594 26.5133C1.46878 26.0938 0.727013 25.3325 0.332005 24.3847C-0.0630041 23.4369 -0.0814853 22.3742 0.280332 21.4132C0.642149 20.4523 1.35699 19.6656 2.279 19.2138L41.2477 0.400753ZM48.375 21.4982C48.375 22.9238 47.8087 24.291 46.8007 25.299C45.7927 26.3071 44.4255 26.8734 43 26.8734C41.5745 26.8734 40.2073 26.3071 39.1993 25.299C38.1913 24.291 37.625 22.9238 37.625 21.4982C37.625 20.0726 38.1913 18.7054 39.1993 17.6974C40.2073 16.6894 41.5745 16.1231 43 16.1231C44.4255 16.1231 45.7927 16.6894 46.8007 17.6974C47.8087 18.7054 48.375 20.0726 48.375 21.4982ZM29.5625 41.655C29.5625 40.5858 29.1378 39.5604 28.3818 38.8044C27.6258 38.0484 26.6004 37.6237 25.5312 37.6237C24.4621 37.6237 23.4367 38.0484 22.6807 38.8044C21.9247 39.5604 21.5 40.5858 21.5 41.655V71.2183C21.5 72.2875 21.9247 73.3129 22.6807 74.0689C23.4367 74.825 24.4621 75.2497 25.5312 75.2497C26.6004 75.2497 27.6258 74.825 28.3818 74.0689C29.1378 73.3129 29.5625 72.2875 29.5625 71.2183V41.655ZM47.0312 41.655C47.0312 40.5858 46.6065 39.5604 45.8505 38.8044C45.0945 38.0484 44.0692 37.6237 43 37.6237C41.9308 37.6237 40.9055 38.0484 40.1495 38.8044C39.3935 39.5604 38.9688 40.5858 38.9688 41.655V71.2183C38.9688 72.2875 39.3935 73.3129 40.1495 74.0689C40.9055 74.825 41.9308 75.2497 43 75.2497C44.0692 75.2497 45.0945 74.825 45.8505 74.0689C46.6065 73.3129 47.0312 72.2875 47.0312 71.2183V41.655ZM64.5 41.655C64.5 40.5858 64.0753 39.5604 63.3193 38.8044C62.5633 38.0484 61.5379 37.6237 60.4688 37.6237C59.3996 37.6237 58.3742 38.0484 57.6182 38.8044C56.8622 39.5604 56.4375 40.5858 56.4375 41.655V71.2183C56.4375 72.2875 56.8622 73.3129 57.6182 74.0689C58.3742 74.825 59.3996 75.2497 60.4688 75.2497C61.5379 75.2497 62.5633 74.825 63.3193 74.0689C64.0753 73.3129 64.5 72.2875 64.5 71.2183V41.655Z" fill="white"/>
</svg>
