<svg width="86" height="86" viewBox="0 0 86 86" fill="none" xmlns="http://www.w3.org/2000/svg">
<path d="M86 74.3247C86 76.0801 85.3873 77.5706 84.1618 78.7961L78.8457 84.1618C77.554 85.3873 76.047 86 74.3247 86C72.5692 86 71.0788 85.3873 69.8533 84.1618L51.8186 66.0774C50.56 64.885 49.9307 63.3946 49.9307 61.606C49.9307 59.8506 50.6428 58.2607 52.067 56.8365L39.3484 44.1179L33.0884 50.3778C32.6247 50.8415 32.0616 51.0734 31.3992 51.0734C30.7368 51.0734 30.1737 50.8415 29.71 50.3778C29.7762 50.4441 29.9832 50.6428 30.331 50.974C30.6788 51.3052 30.8858 51.5205 30.952 51.6199C31.0183 51.7192 31.1839 51.9097 31.4489 52.1912C31.7138 52.4728 31.8795 52.6963 31.9457 52.8619C32.0119 53.0275 32.1113 53.2511 32.2438 53.5326C32.3763 53.8142 32.4674 54.0874 32.517 54.3524C32.5667 54.6174 32.5916 54.9155 32.5916 55.2467C32.5916 56.5053 32.1279 57.6314 31.2005 58.6251C31.1011 58.7244 30.8278 59.0225 30.3807 59.5194C29.9336 60.0162 29.6189 60.3557 29.4367 60.5378C29.2546 60.72 28.9482 60.9933 28.5176 61.3576C28.087 61.7219 27.7227 61.9786 27.4246 62.1277C27.1265 62.2767 26.7622 62.4258 26.3316 62.5748C25.901 62.7239 25.4704 62.7984 25.0399 62.7984C23.715 62.7984 22.5889 62.3347 21.6615 61.4073L1.3911 41.1369C0.463701 40.2095 0 39.0834 0 37.7585C0 37.3279 0.0745234 36.8974 0.22357 36.4668C0.372617 36.0362 0.521664 35.6719 0.670711 35.3738C0.819757 35.0757 1.07645 34.7113 1.44079 34.2808C1.80512 33.8502 2.07837 33.5438 2.26054 33.3616C2.44271 33.1795 2.78221 32.8648 3.27903 32.4177C3.77585 31.9705 4.07395 31.6973 4.17331 31.5979C5.16696 30.6705 6.29309 30.2068 7.5517 30.2068C7.88292 30.2068 8.18101 30.2317 8.44598 30.2813C8.71096 30.331 8.98421 30.4221 9.26574 30.5546C9.54727 30.6871 9.77085 30.7864 9.93645 30.8527C10.1021 30.9189 10.3256 31.0845 10.6072 31.3495C10.8887 31.6145 11.0791 31.7801 11.1785 31.8463C11.2779 31.9126 11.4932 32.1196 11.8244 32.4674C12.1556 32.8151 12.3543 33.0221 12.4206 33.0884C11.9569 32.6247 11.725 32.0616 11.725 31.3992C11.725 30.7368 11.9569 30.1737 12.4206 29.71L29.71 12.4206C30.1737 11.9569 30.7368 11.725 31.3992 11.725C32.0616 11.725 32.6247 11.9569 33.0884 12.4206C33.0221 12.3543 32.8151 12.1556 32.4674 11.8244C32.1196 11.4932 31.9126 11.2779 31.8463 11.1785C31.7801 11.0791 31.6145 10.8887 31.3495 10.6072C31.0845 10.3256 30.9189 10.1021 30.8527 9.93645C30.7864 9.77085 30.6871 9.54727 30.5546 9.26574C30.4221 8.98421 30.331 8.71096 30.2813 8.44598C30.2317 8.18101 30.2068 7.88292 30.2068 7.5517C30.2068 6.29309 30.6705 5.16696 31.5979 4.17331C31.6973 4.07395 31.9705 3.77585 32.4177 3.27903C32.8648 2.78221 33.1795 2.44271 33.3616 2.26054C33.5438 2.07837 33.8502 1.80512 34.2808 1.44079C34.7113 1.07645 35.0757 0.819757 35.3738 0.670711C35.6719 0.521664 36.0362 0.372617 36.4668 0.22357C36.8974 0.0745234 37.3279 0 37.7585 0C39.0834 0 40.2095 0.463701 41.1369 1.3911L61.4073 21.6615C62.3347 22.5889 62.7984 23.715 62.7984 25.0399C62.7984 25.4704 62.7239 25.901 62.5748 26.3316C62.4258 26.7622 62.2767 27.1265 62.1277 27.4246C61.9786 27.7227 61.7219 28.087 61.3576 28.5176C60.9933 28.9482 60.72 29.2546 60.5378 29.4367C60.3557 29.6189 60.0162 29.9336 59.5194 30.3807C59.0225 30.8278 58.7244 31.1011 58.6251 31.2005C57.6314 32.1279 56.5053 32.5916 55.2467 32.5916C54.9155 32.5916 54.6174 32.5667 54.3524 32.517C54.0874 32.4674 53.8142 32.3763 53.5326 32.2438C53.2511 32.1113 53.0275 32.0119 52.8619 31.9457C52.6963 31.8795 52.4728 31.7138 52.1912 31.4489C51.9097 31.1839 51.7192 31.0183 51.6199 30.952C51.5205 30.8858 51.3052 30.6788 50.974 30.331C50.6428 29.9832 50.4441 29.7762 50.3778 29.71C50.8415 30.1737 51.0734 30.7368 51.0734 31.3992C51.0734 32.0616 50.8415 32.6247 50.3778 33.0884L44.1179 39.3484L56.8365 52.067C58.2607 50.6428 59.8506 49.9307 61.606 49.9307C63.3283 49.9307 64.8354 50.5434 66.1271 51.7689L84.1618 69.8036C85.3873 71.0953 86 72.6023 86 74.3247Z" fill="white"/>
</svg>
