<svg width="99" height="86" viewBox="0 0 99 86" fill="none" xmlns="http://www.w3.org/2000/svg">
<path d="M52.7261 3.225V10.75H61.2283C62.7393 10.75 64.2159 11.2058 65.4643 12.0529L72.7697 17.0151C72.9505 17.1355 73.1514 17.1971 73.3724 17.2H91.031C91.8873 17.2 92.7085 17.5398 93.314 18.1446C93.9195 18.7494 94.2597 19.5697 94.2597 20.425C94.2597 21.2803 93.9195 22.1006 93.314 22.7054C92.7085 23.3102 91.8873 23.65 91.031 23.65H84.2379L98.7282 56.674C99.0181 57.3343 99.0781 58.0727 98.8986 58.771C98.7191 59.4694 98.3105 60.0876 97.738 60.5268C97.3076 60.845 96.8627 61.1403 96.4035 61.4126C95.3137 62.0673 94.177 62.6408 93.0027 63.1283C89.1088 64.7548 84.9285 65.5867 80.7079 65.575C76.4885 65.5933 72.3086 64.7626 68.4174 63.1326C67.243 62.6437 66.1062 62.0688 65.0166 61.4126C64.5587 61.1503 64.1173 60.8602 63.695 60.544L63.6735 60.5268C63.101 60.0876 62.6924 59.4694 62.5129 58.771C62.3334 58.0727 62.3934 57.3343 62.6833 56.674L77.1822 23.65H73.3681C71.857 23.65 70.3805 23.1942 69.1321 22.3471L61.8267 17.3849C61.6488 17.2646 61.4388 17.2002 61.224 17.2H52.7261V79.55H72.0422C72.8985 79.55 73.7197 79.8898 74.3252 80.4946C74.9307 81.0994 75.2708 81.9197 75.2708 82.775C75.2708 83.6303 74.9307 84.4506 74.3252 85.0554C73.7197 85.6602 72.8985 86 72.0422 86H26.9528C26.0965 86 25.2752 85.6602 24.6697 85.0554C24.0643 84.4506 23.7241 83.6303 23.7241 82.775C23.7241 81.9197 24.0643 81.0994 24.6697 80.4946C25.2752 79.8898 26.0965 79.55 26.9528 79.55H46.2688V17.2H37.7666C37.5518 17.2002 37.3419 17.2646 37.164 17.3849L29.8629 22.3471C28.6144 23.1942 27.1379 23.65 25.6269 23.65H21.8127L36.3116 56.674C36.5922 57.3156 36.6562 58.0309 36.4939 58.712C36.3316 59.3931 35.9518 60.0029 35.4119 60.4494C35.0675 60.7289 34.7231 60.9912 34.0773 61.4083C32.9893 62.1136 31.8496 62.736 30.6679 63.2702C26.7808 65.0376 22.5579 65.9469 18.287 65.9362C14.0162 65.9469 9.79324 65.0376 5.90615 63.2702C4.72447 62.736 3.58476 62.1136 2.49668 61.4083C2.03846 61.1128 1.59455 60.7956 1.16647 60.458C0.629714 60.0073 0.252124 59.3963 0.0893603 58.715C-0.0734031 58.0337 -0.0127275 57.3182 0.262443 56.674L14.757 23.65H7.96819C7.1119 23.65 6.29067 23.3102 5.68518 22.7054C5.07969 22.1006 4.73953 21.2803 4.73953 20.425C4.73953 19.5697 5.07969 18.7494 5.68518 18.1446C6.29067 17.5398 7.1119 17.2 7.96819 17.2H25.6269C25.845 17.2 26.0473 17.1384 26.2338 17.0151L33.5306 12.0529C34.779 11.2015 36.2599 10.75 37.7709 10.75H46.2688V3.225C46.2688 2.36968 46.609 1.54939 47.2145 0.94458C47.8199 0.339775 48.6412 0 49.4975 0C50.3538 0 51.175 0.339775 51.7805 0.94458C52.386 1.54939 52.7261 2.36968 52.7261 3.225ZM7.27941 56.7514C10.6666 58.5554 14.4484 59.4935 18.287 59.4819C22.1256 59.4935 25.9074 58.5554 29.2946 56.7514L18.287 31.6824L7.27941 56.7514ZM69.7433 56.6482C70.0963 56.8202 70.491 57.0008 70.9272 57.19C73.2088 58.1489 76.5451 59.125 80.7079 59.125C84.5029 59.1352 88.2511 58.2885 91.6725 56.6482L80.7079 31.6781L69.7433 56.6482Z" fill="white"/>
</svg>
