<svg width="69" height="86" viewBox="0 0 69 86" fill="none" xmlns="http://www.w3.org/2000/svg">
<path fill-rule="evenodd" clip-rule="evenodd" d="M44.1026 1.10256C44.1026 0.810146 43.9864 0.529705 43.7796 0.322934C43.5729 0.116163 43.2924 0 43 0H12.1282C8.9116 0 5.82675 1.27779 3.55227 3.55227C1.27779 5.82675 0 8.9116 0 12.1282V73.8718C0 77.0884 1.27779 80.1732 3.55227 82.4477C5.82675 84.7222 8.9116 86 12.1282 86H56.2308C59.4474 86 62.5322 84.7222 64.8067 82.4477C67.0812 80.1732 68.359 77.0884 68.359 73.8718V30.4175C68.359 30.1251 68.2428 29.8447 68.036 29.6379C67.8293 29.4311 67.5488 29.315 67.2564 29.315H47.4103C46.533 29.315 45.6917 28.9665 45.0714 28.3462C44.4511 27.7259 44.1026 26.8845 44.1026 26.0073V1.10256ZM47.4103 44.1026C48.2875 44.1026 49.1288 44.4511 49.7491 45.0714C50.3695 45.6917 50.7179 46.533 50.7179 47.4103C50.7179 48.2875 50.3695 49.1288 49.7491 49.7491C49.1288 50.3695 48.2875 50.7179 47.4103 50.7179H20.9487C20.0715 50.7179 19.2301 50.3695 18.6098 49.7491C17.9895 49.1288 17.641 48.2875 17.641 47.4103C17.641 46.533 17.9895 45.6917 18.6098 45.0714C19.2301 44.4511 20.0715 44.1026 20.9487 44.1026H47.4103ZM47.4103 61.7436C48.2875 61.7436 49.1288 62.0921 49.7491 62.7124C50.3695 63.3327 50.7179 64.174 50.7179 65.0513C50.7179 65.9285 50.3695 66.7699 49.7491 67.3902C49.1288 68.0105 48.2875 68.359 47.4103 68.359H20.9487C20.0715 68.359 19.2301 68.0105 18.6098 67.3902C17.9895 66.7699 17.641 65.9285 17.641 65.0513C17.641 64.174 17.9895 63.3327 18.6098 62.7124C19.2301 62.0921 20.0715 61.7436 20.9487 61.7436H47.4103Z" fill="white"/>
<path d="M50.718 2.5315C50.718 1.72001 51.5692 1.20401 52.1999 1.71119C52.735 2.14339 53.2098 2.64616 53.6244 3.2195L66.9125 21.7293C67.2124 22.1527 66.886 22.6996 66.3656 22.6996H51.8206C51.5282 22.6996 51.2477 22.5834 51.041 22.3767C50.8342 22.1699 50.718 21.8895 50.718 21.597V2.5315Z" fill="white"/>
</svg>
