<svg width="86" height="86" viewBox="0 0 86 86" fill="none" xmlns="http://www.w3.org/2000/svg">
<path d="M56.4375 13.4375C56.4375 17.0013 55.0218 20.4192 52.5017 22.9392C49.9817 25.4593 46.5638 26.875 43 26.875C39.4362 26.875 36.0183 25.4593 33.4983 22.9392C30.9782 20.4192 29.5625 17.0013 29.5625 13.4375C29.5625 9.87365 30.9782 6.45577 33.4983 3.93575C36.0183 1.41573 39.4362 0 43 0C46.5638 0 49.9817 1.41573 52.5017 3.93575C55.0218 6.45577 56.4375 9.87365 56.4375 13.4375ZM83.3125 16.125C83.3125 18.9761 82.1799 21.7104 80.1639 23.7264C78.1479 25.7424 75.4136 26.875 72.5625 26.875C69.7114 26.875 66.9771 25.7424 64.9611 23.7264C62.9451 21.7104 61.8125 18.9761 61.8125 16.125C61.8125 13.2739 62.9451 10.5396 64.9611 8.5236C66.9771 6.50759 69.7114 5.375 72.5625 5.375C75.4136 5.375 78.1479 6.50759 80.1639 8.5236C82.1799 10.5396 83.3125 13.2739 83.3125 16.125ZM13.4375 26.875C16.2886 26.875 19.0229 25.7424 21.0389 23.7264C23.0549 21.7104 24.1875 18.9761 24.1875 16.125C24.1875 13.2739 23.0549 10.5396 21.0389 8.5236C19.0229 6.50759 16.2886 5.375 13.4375 5.375C10.5864 5.375 7.85212 6.50759 5.8361 8.5236C3.82009 10.5396 2.6875 13.2739 2.6875 16.125C2.6875 18.9761 3.82009 21.7104 5.8361 23.7264C7.85212 25.7424 10.5864 26.875 13.4375 26.875ZM21.5 38.9688C21.5 35.26 24.51 32.25 28.2188 32.25H57.7812C61.49 32.25 64.5 35.26 64.5 38.9688V64.5C64.5 70.2022 62.2348 75.6708 58.2028 79.7028C54.1708 83.7348 48.7022 86 43 86C37.2978 86 31.8292 83.7348 27.7972 79.7028C23.7652 75.6708 21.5 70.2022 21.5 64.5V38.9688ZM16.125 38.9688C16.125 36.4801 16.8775 34.1743 18.1621 32.25H6.71875C3.01 32.25 9.58795e-08 35.26 9.58795e-08 38.9688V59.125C-0.000250829 61.4261 0.49202 63.7007 1.44373 65.7958C2.39545 67.8909 3.78456 69.7581 5.51773 71.2718C7.2509 72.7855 9.28799 73.9107 11.4921 74.5719C13.6962 75.233 16.0163 75.4148 18.2965 75.1049C16.8609 71.7538 16.1221 68.1457 16.125 64.5V38.9688ZM69.875 64.5C69.875 68.2625 69.101 71.853 67.7035 75.1049C68.413 75.2016 69.1368 75.25 69.875 75.25C74.1516 75.25 78.2531 73.5511 81.2771 70.5271C84.3011 67.5031 86 63.4016 86 59.125V38.9688C86 35.26 82.99 32.25 79.2812 32.25H67.8379C69.1279 34.1743 69.875 36.4801 69.875 38.9688V64.5Z" fill="white"/>
</svg>
